<?xml version="1.0" encoding="utf-8"?>
<!-- Generator: Adobe Illustrator 24.0.2, SVG Export Plug-In . SVG Version: 6.00 Build 0)  -->
<svg version="1.1" id="_x37_0bb2b30-be60-4de4-9e4b-86e23973444e"
	 xmlns="http://www.w3.org/2000/svg" xmlns:xlink="http://www.w3.org/1999/xlink" x="0px" y="0px" viewBox="0 0 1143.1 875.8"
	 style="enable-background:new 0 0 1143.1 875.8;" xml:space="preserve">
<style type="text/css">
	.st0{fill:#D9E8FE;}
	.st1{fill:#F7FCFF;enable-background:new    ;}
	.st2{fill:none;stroke:#535461;stroke-width:2;stroke-miterlimit:10;}
	.st3{fill:#6C63FF;}
	.st4{fill:#9DBCE0;enable-background:new    ;}
	.st5{fill:url(#SVGID_1_);}
	.st6{fill:#F6F7F9;}
	.st7{fill:url(#SVGID_2_);}
	.st8{fill:#4C4C78;}
	.st9{fill:#FFB9B9;}
	.st10{opacity:0.1;enable-background:new    ;}
	.st11{fill:#CBCDDA;}
	.st12{opacity:5.000000e-02;enable-background:new    ;}
	.st13{fill:none;stroke:#0000FF;stroke-miterlimit:10;}
	.st14{fill:#474463;}
	.st15{fill:#472727;}
	.st16{opacity:0.1;}
</style>
<title>onboarding</title>
<ellipse class="st0" cx="849.7" cy="837.9" rx="115.8" ry="20.3"/>
<path class="st1" d="M35.3,604.7c-13.1,4.5-29,13.7-26.3,28.2c1.3,7.4,7.3,12.8,13,17.5c24.3,19.7,50.9,36.2,79.4,49.2
	c13.6,6.2,28,11.8,38.3,23.2s15,27.2,18.3,42.5c7.8,36.3,9.7,73.5,5.7,110.4c40.9,0.8,86.2-0.1,115.2-29.6
	c17.3-17.7,26.6-43.8,47-57.5c13.6-9.1,30.3-11.4,46.5-13.3c76.6-9,153.6-14.4,230.9-16.3c32.4-0.8,65.5-1.1,95.8-12.4
	s57.8-36,63.9-69.5c1-5.2,1.6-10.8,5.1-14.5c3.2-3.2,7.9-4,12.3-4.6l265.9-36c14.6-2,29.6-4.1,41.9-12.4c11.9-8,19.9-20.8,27.5-33.2
	c17.5-28.5,35.7-63,23.6-95.6c-9.7-26.1-35.8-41.1-60.8-50.4s-51.8-15.9-72.1-34.1c-30.8-27.8-37.7-74-46.4-115.4
	c-7.9-37.5-18.9-74.3-33-109.9c-12.4-31.3-27.6-62.2-50.2-86.6s-53.7-41.7-85.3-40.4c-41.3,1.6-77.6,33.8-119,29.8
	c-34.9-3.3-63.4-31.3-94.8-48.8C521.9-5.8,455.9-3.1,394.8,6.5c-64.8,10.2-130,28.1-182.5,68.3c-12,9.2-23.5,19.8-30.5,33.7
	c-10.8,21.2-9.9,47.1-15.3,70.7c-21.8,95-138.7,134.6-162.7,228.9c-8.5,33.5-2.2,69.8,13.4,100.7c16.8,33.3,50.7,47.5,68.1,76.1
	C73.7,595.5,50.6,599.4,35.3,604.7z"/>
<path class="st2" d="M870.1,836.9c0,0-10.5-72.2,21-119.7c13.4-19.8,19.9-43.5,18.7-67.4c-0.7-11.3-2.4-22.6-5.1-33.6"/>
<path class="st3" d="M924.5,586.1c-1.2,8.5-20.1,30.9-20.1,30.9s-11.8-26.8-10.6-35.3c1.1-8.5,8.8-14.6,17.3-13.5
	c8.5,1.1,14.6,8.8,13.5,17.3C924.5,585.7,924.5,585.9,924.5,586.1L924.5,586.1z"/>
<path class="st3" d="M943.1,636.8c-5.6,6.5-33.7,15-33.7,15s4.6-29,10.3-35.4c5.6-6.5,15.4-7.1,21.9-1.5S948.8,630.3,943.1,636.8
	L943.1,636.8L943.1,636.8z"/>
<path class="st3" d="M930.5,717c-8.1,2.7-36.7-4-36.7-4s18.6-22.7,26.8-25.4c8.3-2.3,16.8,2.5,19.1,10.8
	C941.9,706,937.9,714,930.5,717z"/>
<path class="st3" d="M907.3,775.5c-7.5,4.1-36.8,2.2-36.8,2.2s14.5-25.5,22.1-29.5c7.5-4.1,17-1.2,21,6.3
	C917.7,762,914.9,771.4,907.3,775.5L907.3,775.5L907.3,775.5z"/>
<path class="st3" d="M877,648.8c5.2,6.8,32.7,17,32.7,17s-2.9-29.2-8.2-36c-5.2-6.8-15-8-21.8-2.8C873,632.2,871.7,642,877,648.8z"
	/>
<path class="st3" d="M850.7,717.6c7,4.9,36.3,6.4,36.3,6.4s-11.5-27-18.5-31.9c-7-5-16.7-3.4-21.7,3.5s-3.4,16.7,3.5,21.7
	C850.4,717.4,850.5,717.5,850.7,717.6L850.7,717.6z"/>
<path class="st3" d="M834.3,788c6.1,6,34.7,12.5,34.7,12.5s-6.8-28.5-12.9-34.5c-6-6.1-15.8-6.2-22-0.2c-6.1,6-6.2,15.8-0.2,22
	C834.1,787.8,834.2,787.9,834.3,788L834.3,788z"/>
<path class="st4" d="M924.5,586.1c-1.2,8.5-20.1,30.9-20.1,30.9s-11.8-26.8-10.6-35.3c1.1-8.5,8.8-14.6,17.3-13.5
	c8.5,1.1,14.6,8.8,13.5,17.3C924.5,585.7,924.5,585.9,924.5,586.1L924.5,586.1z"/>
<path class="st4" d="M943.1,636.8c-5.6,6.5-33.7,15-33.7,15s4.6-29,10.3-35.4c5.6-6.5,15.4-7.1,21.9-1.5S948.8,630.3,943.1,636.8
	L943.1,636.8L943.1,636.8z"/>
<path class="st4" d="M930.5,717c-8.1,2.7-36.7-4-36.7-4s18.6-22.7,26.8-25.4c8.3-2.3,16.8,2.5,19.1,10.8
	C941.9,706,937.9,714,930.5,717z"/>
<path class="st4" d="M907.3,775.5c-7.5,4.1-36.8,2.2-36.8,2.2s14.5-25.5,22.1-29.5c7.5-4.1,17-1.2,21,6.3
	C917.7,762,914.9,771.4,907.3,775.5L907.3,775.5L907.3,775.5z"/>
<path class="st4" d="M877,648.8c5.2,6.8,32.7,17,32.7,17s-2.9-29.2-8.2-36c-5.2-6.8-15-8-21.8-2.8C873,632.2,871.7,642,877,648.8z"
	/>
<path class="st4" d="M850.7,717.6c7,4.9,36.3,6.4,36.3,6.4s-11.5-27-18.5-31.9c-7-5-16.7-3.4-21.7,3.5s-3.4,16.7,3.5,21.7
	C850.4,717.4,850.5,717.5,850.7,717.6L850.7,717.6z"/>
<path class="st4" d="M834.3,788c6.1,6,34.7,12.5,34.7,12.5s-6.8-28.5-12.9-34.5c-6-6.1-15.8-6.2-22-0.2c-6.1,6-6.2,15.8-0.2,22
	C834.1,787.8,834.2,787.9,834.3,788L834.3,788z"/>
<path class="st2" d="M871,834.6c0,0-38.8-61.8-29.3-118c4.2-23.5,0.6-47.8-10.2-69.2c-5.2-10.1-11.3-19.7-18.3-28.7"/>
<path class="st0" d="M819.1,583.3c2.3,8.3-5.9,36.4-5.9,36.4s-21.7-19.7-24-28c-2.3-8.3,2.5-16.8,10.7-19.2
	C808.2,570.2,816.8,575,819.1,583.3L819.1,583.3z"/>
<path class="st0" d="M856.7,622.1c-2.5,8.2-24.7,27.4-24.7,27.4s-7.5-28.3-5-36.5c2.5-8.2,11.2-12.8,19.4-10.3
	S859.2,613.9,856.7,622.1L856.7,622.1z"/>
<path class="st0" d="M877.6,700.5c-6.3,5.8-35.2,11.2-35.2,11.2s7.8-28.3,14.2-34c6.3-5.8,16.2-5.4,22,1S884,694.8,877.6,700.5
	L877.6,700.5z"/>
<path class="st0" d="M880.1,763.4c-5.3,6.8-32.8,16.9-32.8,16.9s3-29.2,8.2-36c5.1-6.9,14.8-8.4,21.7-3.3c6.9,5.1,8.4,14.8,3.3,21.7
	C880.4,763,880.3,763.2,880.1,763.4L880.1,763.4z"/>
<path class="st0" d="M801,659.9c7.5,4.1,36.8,2.3,36.8,2.3s-14.5-25.5-22-29.6c-7.5-4.1-17-1.3-21.1,6.3S793.5,655.8,801,659.9z"/>
<path class="st0" d="M804.9,733.5c8.4,1.6,35.8-8.8,35.8-8.8s-21.5-20-29.9-21.6c-8.4-1.8-16.7,3.5-18.5,11.8
	c-1.8,8.4,3.5,16.7,11.8,18.5C804.4,733.4,804.6,733.4,804.9,733.5z"/>
<path class="st0" d="M818.4,804.4c8,3,36.8-2.7,36.8-2.7s-17.8-23.3-25.8-26.4c-8.2-2.6-16.9,1.9-19.5,10.1
	C807.5,793,811.2,801.2,818.4,804.4L818.4,804.4z"/>
<linearGradient id="SVGID_1_" gradientUnits="userSpaceOnUse" x1="539.33" y1="114.71" x2="539.33" y2="820.17" gradientTransform="matrix(1 0 0 -1 0 878)">
	<stop  offset="0" style="stop-color:#808080;stop-opacity:0.25"/>
	<stop  offset="0.54" style="stop-color:#808080;stop-opacity:0.12"/>
	<stop  offset="1" style="stop-color:#808080;stop-opacity:0.1"/>
</linearGradient>
<polygon class="st5" points="285.6,57.8 285.6,85.2 285.6,763.3 793,763.3 793,85.2 793,57.8 "/>
<rect x="290.1" y="64" class="st6" width="498.5" height="26.9"/>
<g>
	<rect x="290.1" y="64" class="st0" width="498.5" height="26.9"/>
</g>
<rect x="290.1" y="90.9" class="st6" width="498.5" height="666.2"/>
<circle class="st6" cx="303.2" cy="77.5" r="4.6"/>
<circle class="st6" cx="315.5" cy="77.5" r="4.6"/>
<circle class="st6" cx="327.9" cy="77.5" r="4.6"/>
<g>
	<rect x="379" y="132" class="st0" width="320.5" height="12.6"/>
</g>
<rect x="657" y="132" class="st4" width="42.6" height="12.6"/>
<g>
	<rect x="337.6" y="203.5" class="st0" width="403.4" height="144.5"/>
</g>
<rect x="450.8" y="256.1" class="st6" width="232.7" height="12.5"/>
<rect x="450.8" y="282.8" class="st6" width="120.7" height="12.5"/>
<rect x="657" y="320.8" class="st4" width="42.6" height="12.5"/>
<circle class="st6" cx="386.3" cy="275.7" r="22.8"/>
<g>
	<rect x="337.6" y="388.5" class="st0" width="403.4" height="144.5"/>
</g>
<rect x="450.8" y="441.1" class="st6" width="232.7" height="12.5"/>
<rect x="450.8" y="467.7" class="st6" width="120.7" height="12.5"/>
<rect x="657" y="505.8" class="st4" width="42.6" height="12.5"/>
<circle class="st6" cx="386.3" cy="460.7" r="22.8"/>
<g>
	<rect x="337.6" y="573.5" class="st0" width="403.4" height="144.5"/>
</g>
<rect x="450.8" y="626.1" class="st6" width="232.7" height="12.5"/>
<rect x="450.8" y="652.7" class="st6" width="120.7" height="12.5"/>
<rect x="657" y="690.8" class="st4" width="42.6" height="12.5"/>
<circle class="st6" cx="386.3" cy="645.7" r="22.8"/>
<linearGradient id="SVGID_2_" gradientUnits="userSpaceOnUse" x1="260.5641" y1="65.1148" x2="260.5641" y2="680.202" gradientTransform="matrix(-1 0 0 -1 544.72 865.89)">
	<stop  offset="0" style="stop-color:#808080;stop-opacity:0.25"/>
	<stop  offset="0.54" style="stop-color:#808080;stop-opacity:0.12"/>
	<stop  offset="1" style="stop-color:#808080;stop-opacity:0.1"/>
</linearGradient>
<path class="st7" d="M163.6,454.4c-3.9,17.6-10.9,39.3-10.9,39.3c6.9,8,37,9.5,37,9.5l0.1-0.1h0.5c0.2,1.1,0.4,2.2,0.7,3.2
	c-0.1,1-0.1,2-0.1,3.1c-0.4,1.2-0.6,2.5-0.4,3.8c0.1,0.3,0.1,0.6,0.2,0.8c-0.7,15.9-1.2,32.9-0.8,42.8c0,2.8,0.3,5.6,0.9,8.3
	c0.5,2.1,0.8,4.2,0.9,6.3c0.5,14.4-3,38.5-3,38.5s0.1,0.3,0.1,0.5c-0.1,0.4-0.1,0.7-0.1,0.7c0.3,1,0.5,2,0.5,3
	c0.3,12.1-6.7,38.5-6.7,38.5s-5.6,40.5-4.8,56c0,1.2,0.1,2.5,0.3,3.7c1.7,12.8,4,48.7,4,48.7c0.4,0.6,0.8,1.2,1.3,1.7
	c-0.2,0.8-0.4,1.6-0.7,2.4c-2.7,8.1-3.8,16.6-3.4,25.1c0.1,1,0.1,2.1,0.3,3.2c1.1,13.2,33.2,5,35.3,3.5c0.7-0.5,0.2-5.3-0.8-11.4
	l33,8.2c0,0,23.4,3.5,34.5,0s10.7-13-5.2-14.6c-11.1-1.1-20-11.5-24.4-17.6c1.7-4.6,14.4-39.6,16.7-61.3c1.5-14,4-27.9,7.4-41.5
	l2.5-32.2l4.4-19l5.3-25.1c6-18.4,7.8-49.2,7.8-49.2l4.6-30.2c0.6-3.3,1-6.6,1.1-10c4.3,0.9,8.6,2,12.8,3.4c7.2-5.6-3-59.6-3-59.6
	s-4.9-34.1-9.1-65.1c9.5-1.4,19.9,0.8,19.9,0.8l60.4,1.3c1.3-1.6,2.3-3.4,3.2-5.3h2.6c0.3-0.4,0.6-0.9,0.8-1.5l1.1,0.2
	c3.9,0.9,7.8,2.1,11.6,3.5c0,0,19.1,2.3,16.2-17.7c-2.1-14.9-19.1-9.5-27.6-5.8l-1.1,0.5c-0.1-0.6-0.1-0.9-0.1-0.9l-2.7,0.5
	c-0.2-0.4-0.4-0.8-0.6-1.2c0,0-29.6-1.1-53.7-4.8c-17.1-2.6-30-12.3-36.1-17.8c-4.2-21.4-16.4-27.9-16.4-27.9
	c-6.8-0.3-12.9-3.3-16.7-5.6c-1.4-0.8-2.7-1.7-3.9-2.7l-0.7,0.4l-0.1-0.1c4.1-3.8,8.3-7.3,12-10.2l1.7-1.3
	c20.4-2,35.3-20.1,33.3-40.5c-0.4-3.9-1.4-7.8-3-11.4c-0.2-0.4-0.4-0.7-0.5-1.1c3.8-0.4,6.9-3.4,7.3-7.2c0.4-4.2-2.5-8.6-0.6-12.4
	c0.3-0.6,0.6-1.1,0.9-1.8c0.2-0.6,0.2-1.2,0.1-1.8c-0.3-3.6-2.1-6.9-5-9c-4.3-3.1-8.1-1.5-12.8-1.8c-5.4-0.3-10.8-1.6-16.1-2.5
	c-6.1-1-12.4-1.7-18.5-0.6c-6.1,1.1-12.1,4.1-15.7,9.2c-1.5,2.2-2.5,4.7-4,6.9c-1.6,2.6-3.7,4.9-5.6,7.3c-3.1,4.1-5.7,8.9-5.4,14.1
	c0.1,2.9,1.2,5.7,1.4,8.6c0,2.7-0.2,5.4-0.6,8.1c-0.3,3.5-0.1,6.9,0.6,10.3c0.1,1.1,0.5,2.1,1.2,2.9c0.7,0.8,1.6,1.3,2.6,1.7
	c1,0.4,2.1,0.7,3.2,1c-1.2,2.8-2.7,5.5-4.5,8l-1.6-1.7l-4.4,6.8l-0.2-0.5c-0.2,0.4-0.4,0.8-0.7,1.3l-0.4-1.3
	c-1.9,3.9-5.6,7.1-9.8,9.8c-11.5,7.2-27.4,10.2-27.4,10.2c-25.8,3.7-21,30.4-21,30.4s-10.9,47.5-14,76.8s8.3,48,8.3,48L163.6,454.4z
	 M286.4,367.6c1,3.3,1.9,6.4,2.6,9.1l-0.5,0.2C288,374.4,287.3,371.2,286.4,367.6L286.4,367.6z M258.1,288l-0.1,0.1L258.1,288
	L258.1,288z M213.6,784.1c-1.3-7.5-3.1-16.6-4.3-22c0.8-2.7,1.9-6.8,3.2-12.8c2.9-13.6,4.6-61.8,4.6-61.8l6.7-40.5
	c6.1-15.5,7.5-34,7.5-34c2.5-6.5,8.2-46.4,9.1-52.8c-0.3,4.4-0.9,15.7-1.2,28.1c0,0.1,0,0.2,0,0.3c-0.3,9.4-0.3,19.5,0,27.9l0,0
	c0.1,2.3,0.2,4.6,0.4,6.6c0,0.5,0.1,1.1,0.1,1.6c0.7,21.7-9,49-9,49s-4.3,20.2-3.7,31.5c0,2,0.3,4.1,0.9,6c0.3,0.9,0.5,1.8,0.5,2.8
	c0.2,10.8-6.2,33.5-7.8,39.1C216.9,760.5,214.3,779.2,213.6,784.1z"/>
<path class="st8" d="M249.3,754.5c0,0,11.2,20.3,27,21.9s16.2,11,5.1,14.5s-34.2,0-34.2,0l-33.1-8.2c0,0,4-32.7,9.3-34.4
	C228.7,746.6,249.3,754.5,249.3,754.5z"/>
<path class="st8" d="M209,754.9c0,0,8.4,37.6,6.3,39.2s-33.8,9.7-35-3.4c-0.1-1.1-0.2-2.2-0.2-3.2c-0.5-8.4,0.6-16.9,3.3-24.9
	c0.9-2.5,1.4-5.1,1.3-7.7C184.1,749.6,209,754.9,209,754.9z"/>
<path class="st9" d="M219.3,278.4c0,0,25.7,63,21.1,42.8c-3-13.4,16.5-31.2,30-41.7c6.9-5.3,12.2-8.8,12.2-8.8s-48.2-56.2-44.8-31.9
	c0.9,6.6,0,13.4-2.6,19.6C231.7,266.2,226.2,273.1,219.3,278.4z"/>
<path class="st9" d="M383.3,367.9c2-0.3,4-0.1,5.9,0.4c3.9,0.9,7.7,2.1,11.5,3.5c0,0,18.9,2.3,16-17.5c-2.1-14.8-18.9-9.4-27.3-5.7
	c-2.9,1.3-4.8,2.3-4.8,2.3L383.3,367.9z"/>
<path class="st10" d="M383.3,367.9c2-0.3,4-0.1,5.9,0.4c2-5.2,0.5-17.5,0.2-19.8c-2.9,1.3-4.8,2.3-4.8,2.3L383.3,367.9z"/>
<path class="st11" d="M383.2,349l4.9-0.9c0,0,2.5,17-0.8,21.4h-5.7L383.2,349z"/>
<path class="st8" d="M284.1,380c0,0,15.1-9,16.9,2.4s4.2,30.9,4.2,30.9l4.2,24.8l5.4,49.7l-0.8,8.5c0,0-16.1-5.4-19.9-3.5
	s-6.9-20.9-6.9-20.9l-6.3-23.6l-1-50L284.1,380z"/>
<path class="st10" d="M284.1,380c0,0,15.1-9,16.9,2.4s4.2,30.9,4.2,30.9l4.2,24.8l5.4,49.7l-0.8,8.5c0,0-16.1-5.4-19.9-3.5
	s-6.9-20.9-6.9-20.9l-6.3-23.6l-1-50L284.1,380z"/>
<path class="st8" d="M292.2,321.5c0,0,15.7,17.7,39.5,21.3s53.2,4.7,53.2,4.7s7.4,13.3-3.3,27.4l-59.9-1.3c0,0-13.3-2.9-23.5,0
	L292.2,321.5z"/>
<path class="st12" d="M292.2,321.5c0,0,15.7,17.7,39.5,21.3s53.2,4.7,53.2,4.7s7.4,13.3-3.3,27.4l-59.9-1.3c0,0-13.3-2.9-23.5,0
	L292.2,321.5z"/>
<path class="st13" d="M422.4,394"/>
<path class="st10" d="M237.8,257.8c5.9,12.5,16,21.7,30.8,21.7c0.6,0,1.3,0,1.9,0c6.9-5.3,12.2-8.8,12.2-8.8s-48.2-56.2-44.8-31.9
	C238.9,246.2,240.1,252.2,237.8,257.8z"/>
<path class="st9" d="M231.8,241.6c0,20.3,16.4,36.7,36.7,36.8c20.3,0,36.7-16.4,36.8-36.7c0-20.3-16.4-36.7-36.7-36.8l0,0
	c-20.2,0-36.7,16.3-36.7,36.6C231.8,241.5,231.8,241.6,231.8,241.6z"/>
<path class="st11" d="M209.4,466.1c0,0,81.9,7.2,85-3.2s-8.4-38.8-8.4-38.8l3.7-39.5l0.1-1.5c0,0-10.2-42.8-9.9-46.2
	c0.4-3.1-16.5-39-20-46.3l-0.6-1.3l-0.6,0.4l-0.3,0.2l-4,2.3l-15.9-3.7l-19.1-10l-1.8,109.4L209.4,466.1z"/>
<path class="st10" d="M251.9,290.6c0,0,5.6-1.5,7.8,4.1c0.8,2.4,1.8,4.7,3,7l2.2,13l4,20.5l2.9,91l-1.3,16.2l-7.3-13l-1.3-85v-10.6
	c-0.4-9.1-2.5-18.1-6.1-26.6l-1-2.4l-6.4-8.2L251.9,290.6z"/>
<path class="st8" d="M253.1,289.4c0,0,5.6-1.5,7.8,4.1c0.8,2.4,1.8,4.7,3,7l2.2,13l4,20.5l3,91l-1.3,16.2l-7.3-13l-1.3-85v-10.6
	c-0.4-9.1-2.5-18.1-6.1-26.6l-1-2.4l-6.4-8.1L253.1,289.4z"/>
<path class="st10" d="M229.1,265.9c0,0,19.4,20.5,26.2,23c0,0-3.4,15.6-6.8,18.6c0,0-20.4-20.8-24-22.4l-3-7.4L229.1,265.9z"/>
<path class="st11" d="M229.1,264.8c0,0,19.4,20.5,26.2,23c0,0-3.4,15.6-6.8,18.6c0,0-20.4-20.8-24-22.4l-3-7.4L229.1,264.8z"/>
<path class="st10" d="M258.1,289.2l0.2,0.5l6.2,16.7l11.1,31.5c0,0,0.1,0.3,0.3,0.9c1.8,5.7,11.7,36.8,13.7,45.8l0.1-1.5
	c0,0-10.2-42.8-9.9-46.2c0.4-3.1-16.5-39-20-46.3c-0.5-0.4-1-0.7-1.3-0.9L258.1,289.2z"/>
<path class="st8" d="M259.3,289.2l6.4,17.2l11.1,31.5c0,0,0.1,0.3,0.3,0.9c2,6.1,13.1,40.9,14,47.3c1,7,15,44.8,15,44.8l8,65.4
	c7.1-5.6-3-59-3-59S299.7,358,297,331.7s-17.3-34.2-17.3-34.2c-6.7-0.3-12.8-3.3-16.5-5.6C261.8,291.1,260.5,290.2,259.3,289.2z"/>
<path class="st10" d="M178.8,710.3c1.7,12.7,4,48.3,4,48.3c8,12,25.7,5.5,25.7,5.5s1.9-3.6,4.7-17.1s4.6-61.2,4.6-61.2l6.7-40.1
	c6.1-15.4,7.4-33.7,7.4-33.7c2.7-7,9.1-53.2,9.1-53.2s-2.7,41.5-1,63.3s-8.7,51.3-8.7,51.3s-5.9,27.6-2.9,36.1s-7.6,43.9-7.6,43.9
	c0.9,10.3,31.2,6.1,31.2,6.1s14.3-38.2,16.7-61.2c1.5-13.9,3.9-27.6,7.3-41.2l2.5-31.9l4.4-18.8l5.2-24.9
	c5.9-18.3,7.7-48.8,7.7-48.8l4.6-29.9c3-14.8-0.9-32.2-3.5-41.3c-1.1-3.9-2-6.3-2-6.3c-2.6,1.9-17.6,4-25.4,5.8c-4.3,1-8.6,1.3-13,1
	c-19.6-1.5-39-5.1-57.9-10.6l-2-0.6l-0.4,3.4l-0.9,8.2l-1.7,14.5c0,0-5.1,77.2-2.1,87.7s-2.1,45.6-2.1,45.6
	c2.9,8.3-6.1,42.2-6.1,42.2S177,697.5,178.8,710.3z"/>
<path class="st14" d="M178.8,709.1c1.7,12.7,4,48.3,4,48.3c8,12,25.7,5.5,25.7,5.5s1.9-3.6,4.7-17.1s4.6-61.2,4.6-61.2l6.7-40.1
	c6.1-15.4,7.4-33.7,7.4-33.7c2.7-7,9.1-53.2,9.1-53.2s-2.7,41.5-1,63.3s-8.7,51.3-8.7,51.3s-5.9,27.6-2.9,36.1s-7.6,43.9-7.6,43.9
	c0.9,10.3,31.2,6.1,31.2,6.1s14.3-38.2,16.7-61.2c1.5-13.9,3.9-27.6,7.3-41.2l2.5-31.9l4.4-18.8l5.2-24.9
	c5.9-18.3,7.7-48.8,7.7-48.8l4.6-30c3-14.8-0.9-32.2-3.5-41.3c-1.1-3.9-2-6.3-2-6.3c-2.6,1.9-17.6,4-25.4,5.8c-4.3,1-8.6,1.3-13,1
	c-19.6-1.5-39-5.1-57.9-10.6l-2-0.6l-0.4,3.4l-0.9,8.2l-1.7,14.5c0,0-5.1,77.2-2.1,87.7s-2.1,45.6-2.1,45.6
	c2.9,8.3-6.1,42.2-6.1,42.2S177,696.4,178.8,709.1z"/>
<path class="st10" d="M231.8,241.6c0,6.4,1.7,12.7,4.9,18.3c5.7,1,11.8-0.1,16.1-3.9c2.9-2.6,4.8-6.1,7.3-9.1
	c1.6-1.8,3.4-3.6,5.3-5.2c1.2-1.2,2.6-2.2,4.1-3c1.6-0.8,3.4-0.8,5-0.1c2,1.1,2.7,3.6,3.9,5.6c0.9,1.7,2.4,3,4.2,3.7
	c1.9,0.6,3.9-0.1,5-1.7c1.2-2.1,0.3-5.5,2.4-6.8c0.5-0.3,1.1-0.5,1.7-0.7c2.7-1.2,3-4.8,3.2-7.8c0.1-1.4,0.4-3.1,1.6-3.9
	s2.8-0.4,4.3-0.4c0.4,0,0.9,0,1.3-0.1c-8.2-18.6-29.9-26.9-48.5-18.7C240.4,213.9,231.8,227.1,231.8,241.6L231.8,241.6z"/>
<path class="st15" d="M304.3,193.9c2.9,2.1,4.7,5.3,5,8.9c0.1,0.6,0,1.2-0.1,1.8c-0.3,0.6-0.6,1.2-0.9,1.7c-1.9,3.7,1,8.1,0.6,12.3
	c-0.5,4.1-3.9,7.1-8,7.2c-1.5,0-3-0.4-4.3,0.4s-1.5,2.4-1.6,3.9c-0.2,2.9-0.5,6.6-3.2,7.8c-0.6,0.2-1.1,0.4-1.7,0.7
	c-2.1,1.3-1.2,4.6-2.4,6.8c-1.1,1.6-3.1,2.3-5,1.7c-1.8-0.6-3.3-2-4.2-3.7c-1.1-2-1.8-4.5-3.9-5.6c-1.6-0.8-3.4-0.7-5,0.1
	c-1.5,0.8-2.9,1.8-4.1,3c-1.9,1.6-3.6,3.3-5.3,5.2c-2.5,3-4.4,6.5-7.3,9.1c-5.5,4.9-14,5.3-20.8,2.6c-1-0.3-1.9-0.9-2.6-1.7
	c-0.6-0.9-1.1-1.9-1.2-3c-0.7-3.4-0.9-6.8-0.6-10.2c0.4-2.6,0.6-5.3,0.6-8c-0.2-2.9-1.2-5.7-1.4-8.5c-0.3-5.1,2.3-9.9,5.4-14
	c1.9-2.4,4-4.6,5.6-7.2c1.4-2.2,2.4-4.7,3.9-6.9c3.5-5,9.5-8,15.5-9.1c6.1-1.1,12.3-0.4,18.4,0.6c5.3,0.9,10.6,2.2,16,2.5
	C296.3,192.3,300.1,190.8,304.3,193.9z"/>
<path class="st10" d="M259.3,289.2l6.4,17.2l11.1,31.5c0,0,0.1,0.3,0.3,0.9l0,0l-14-46.9C261.8,291.1,260.5,290.2,259.3,289.2z"/>
<path class="st9" d="M189.9,486.1c0,0-0.7,20.8,4.9,26l14.9-28.1l-12.5-6.1L189.9,486.1z"/>
<path class="st10" d="M155,493.7c6.9,8,36.6,9.4,36.6,9.4l29.5-46.5c0,0,7-4.9,20.1-26.7s12.7-38.6,12-51.2s-9-48.6-9-48.6
	c-1.3-8.1-19.7-59-19.7-59c-1.9,3.9-5.5,7.1-9.7,9.7c-11.3,7.1-27.2,10-27.2,10c-25.5,3.7-20.8,30.1-20.8,30.1s-0.3,102.6,1.3,114.8
	S155,493.7,155,493.7z"/>
<polygon class="st11" points="189.5,490.1 190.3,497.7 200.7,493.9 208.3,482.4 202.6,477.9 "/>
<path class="st10" d="M189.9,460.6l5.4,0.5l52.3,5.2c8.4,0.8,16.9,0.4,25.1-1.2l24.2-4.9c-1.1-3.9-2-6.3-2-6.3
	c-2.6,1.9-17.6,4-25.4,5.8c-4.3,1-8.6,1.3-13,1c-19.6-1.5-39.1-5.1-58-10.6l-2.4,2.8L189.9,460.6z"/>
<g class="st16">
	<path d="M294.3,454.3c0.2-0.1,0.3-0.2,0.5-0.3l0,0.1L294.3,454.3z"/>
	<path d="M183.3,651.1c0,0,8.9-33.9,6.1-42.2c0,0,5.1-35.1,2.1-45.6s2.1-87.6,2.1-87.6l1.7-14.5l1-8.2l0.4-3.4c0,0,0.7,0.2,2,0.6
		l1.2,0.4l-0.3,1.3l-0.9,8.2l-1.7,14.5c0,0-5.1,77.2-2.1,87.7s-2.1,45.6-2.1,45.6c2.9,8.3-6.1,42.2-6.1,42.2s-6.3,45.3-4.6,58
		s4,48.3,4,48.3c5.8,8.8,16.8,7.7,22.3,6.4c-0.1,0.2-0.1,0.2-0.1,0.2s-17.7,6.5-25.7-5.5c0,0-2.3-35.6-4-48.3
		S183.3,651.1,183.3,651.1z"/>
	<path d="M228.3,708.4c-3-8.5,2.9-36.1,2.9-36.1s10.4-29.5,8.7-51.3c-0.7-9.1-0.7-21.6-0.4-33.1c2.4-14.8,4.7-31.3,4.7-31.3
		s-2.7,41.4-1,63.3s-8.7,51.3-8.7,51.3s-5.9,27.6-2.9,36.1s-7.6,43.9-7.6,43.9c0.8,8.2,20.3,7.2,28,6.4l-0.3,0.8
		c0,0-30.2,4.2-31.2-6.1C220.7,752.3,231.4,716.9,228.3,708.4z"/>
</g>
<path class="st8" d="M153.9,493.7c6.9,8,36.6,9.4,36.6,9.4l29.5-46.5c0,0,7-4.9,20.1-26.7s12.7-38.6,12-51.2s-9-48.6-9-48.6
	c-1.3-8.1-19.7-59-19.7-59c-1.9,3.9-5.5,7.1-9.7,9.7c-11.4,7.1-27.2,10-27.2,10c-25.5,3.7-20.8,30.1-20.8,30.1s-0.3,102.5,1.3,114.8
	S153.9,493.7,153.9,493.7z"/>
<path class="st10" d="M218.1,296.4l6.4,2.4l-4.3,3l31.9,77c-0.7-12.5-9-48.6-9-48.6c-1.3-8.1-19.7-59-19.7-59
	c-1.9,3.9-5.5,7.1-9.7,9.7L218.1,296.4z"/>
<polygon class="st10" points="210.4,433.5 177.7,425.1 173.4,438.4 206.8,446.5 "/>
<path class="st10" d="M191.7,301.8c0,0,14.8,14,9.3,45.1s-14.5,64.9-14.5,64.9l24.1,66.9c0,0-16.8,17.5-25.1,19.7l-24.1-53.5
	c0,0-11.3-18.5-8.3-47.6s13.8-76.1,13.8-76.1S166.9,292.4,191.7,301.8z"/>
<path class="st8" d="M190.6,301.8c0,0,14.8,14,9.3,45.1s-14.5,64.9-14.5,64.9l24.1,66.9c0,0-16.8,17.5-25.1,19.7l-24.1-53.5
	c0,0-11.3-18.5-8.3-47.6s13.8-76.1,13.8-76.1S165.7,292.4,190.6,301.8z"/>
<path class="st10" d="M208.6,480c0,0-18.8,26-17.4,33s6.9,3.2,6.9,3.2l7.4-10.2l6.7-19C212.2,487.1,211.6,478.9,208.6,480z"/>
<path class="st10" d="M210.9,480c0,0-18.8,26-17.4,33s6.9,3.2,6.9,3.2l7.4-10.2l6.7-19C214.5,487.1,213.8,478.9,210.9,480z"/>
<path class="st14" d="M209.7,480c0,0-18.8,26-17.4,33s6.9,3.2,6.9,3.2l7.4-10.2l6.7-19C213.4,487.1,212.7,478.9,209.7,480z"/>
</svg>
